<svg id="visual" viewBox="0 0 900 600" width="900" height="600" xmlns="http://www.w3.org/2000/svg" xmlns:xlink="http://www.w3.org/1999/xlink" version="1.1"><rect x="0" y="0" width="900" height="600" fill="#293855"></rect><path d="M217 600L438 600L438 570L217 570L217 540L358 540L358 510L433 510L433 480L373 480L373 450L381 450L381 420L313 420L313 390L388 390L388 360L225 360L225 330L349 330L349 300L273 300L273 270L410 270L410 240L373 240L373 210L351 210L351 180L302 180L302 150L259 150L259 120L252 120L252 90L350 90L350 60L366 60L366 30L249 30L249 0L900 0L900 30L900 30L900 60L900 60L900 90L900 90L900 120L900 120L900 150L900 150L900 180L900 180L900 210L900 210L900 240L900 240L900 270L900 270L900 300L900 300L900 330L900 330L900 360L900 360L900 390L900 390L900 420L900 420L900 450L900 450L900 480L900 480L900 510L900 510L900 540L900 540L900 570L900 570L900 600L900 600Z" fill="#c2e7c9"></path><path d="M411 600L453 600L453 570L423 570L423 540L451 540L451 510L354 510L354 480L321 480L321 450L310 450L310 420L334 420L334 390L441 390L441 360L410 360L410 330L457 330L457 300L389 300L389 270L376 270L376 240L410 240L410 210L370 210L370 180L349 180L349 150L329 150L329 120L428 120L428 90L290 90L290 60L407 60L407 30L295 30L295 0L900 0L900 30L900 30L900 60L900 60L900 90L900 90L900 120L900 120L900 150L900 150L900 180L900 180L900 210L900 210L900 240L900 240L900 270L900 270L900 300L900 300L900 330L900 330L900 360L900 360L900 390L900 390L900 420L900 420L900 450L900 450L900 480L900 480L900 510L900 510L900 540L900 540L900 570L900 570L900 600L900 600Z" fill="#b4d8bb"></path><path d="M512 600L470 600L470 570L388 570L388 540L550 540L550 510L402 510L402 480L403 480L403 450L496 450L496 420L522 420L522 390L439 390L439 360L496 360L496 330L480 330L480 300L506 300L506 270L412 270L412 240L530 240L530 210L394 210L394 180L432 180L432 150L383 150L383 120L511 120L511 90L531 90L531 60L369 60L369 30L458 30L458 0L900 0L900 30L900 30L900 60L900 60L900 90L900 90L900 120L900 120L900 150L900 150L900 180L900 180L900 210L900 210L900 240L900 240L900 270L900 270L900 300L900 300L900 330L900 330L900 360L900 360L900 390L900 390L900 420L900 420L900 450L900 450L900 480L900 480L900 510L900 510L900 540L900 540L900 570L900 570L900 600L900 600Z" fill="#a6caad"></path><path d="M547 600L441 600L441 570L514 570L514 540L566 540L566 510L451 510L451 480L534 480L534 450L546 450L546 420L573 420L573 390L529 390L529 360L508 360L508 330L587 330L587 300L571 300L571 270L631 270L631 240L610 240L610 210L449 210L449 180L550 180L550 150L505 150L505 120L510 120L510 90L565 90L565 60L573 60L573 30L492 30L492 0L900 0L900 30L900 30L900 60L900 60L900 90L900 90L900 120L900 120L900 150L900 150L900 180L900 180L900 210L900 210L900 240L900 240L900 270L900 270L900 300L900 300L900 330L900 330L900 360L900 360L900 390L900 390L900 420L900 420L900 450L900 450L900 480L900 480L900 510L900 510L900 540L900 540L900 570L900 570L900 600L900 600Z" fill="#98bc9f"></path><path d="M581 600L672 600L672 570L646 570L646 540L523 540L523 510L556 510L556 480L569 480L569 450L519 450L519 420L604 420L604 390L616 390L616 360L667 360L667 330L582 330L582 300L696 300L696 270L632 270L632 240L523 240L523 210L627 210L627 180L609 180L609 150L666 150L666 120L690 120L690 90L523 90L523 60L525 60L525 30L524 30L524 0L900 0L900 30L900 30L900 60L900 60L900 90L900 90L900 120L900 120L900 150L900 150L900 180L900 180L900 210L900 210L900 240L900 240L900 270L900 270L900 300L900 300L900 330L900 330L900 360L900 360L900 390L900 390L900 420L900 420L900 450L900 450L900 480L900 480L900 510L900 510L900 540L900 540L900 570L900 570L900 600L900 600Z" fill="#8aae91"></path><path d="M721 600L707 600L707 570L709 570L709 540L602 540L602 510L599 510L599 480L714 480L714 450L698 450L698 420L759 420L759 390L748 390L748 360L725 360L725 330L623 330L623 300L605 300L605 270L618 270L618 240L599 240L599 210L682 210L682 180L595 180L595 150L615 150L615 120L601 120L601 90L743 90L743 60L663 60L663 30L680 30L680 0L900 0L900 30L900 30L900 60L900 60L900 90L900 90L900 120L900 120L900 150L900 150L900 180L900 180L900 210L900 210L900 240L900 240L900 270L900 270L900 300L900 300L900 330L900 330L900 360L900 360L900 390L900 390L900 420L900 420L900 450L900 450L900 480L900 480L900 510L900 510L900 540L900 540L900 570L900 570L900 600L900 600Z" fill="#7da084"></path><path d="M714 600L765 600L765 570L774 570L774 540L752 540L752 510L700 510L700 480L711 480L711 450L771 450L771 420L813 420L813 390L825 390L825 360L777 360L777 330L763 330L763 300L785 300L785 270L797 270L797 240L701 240L701 210L815 210L815 180L707 180L707 150L699 150L699 120L785 120L785 90L672 90L672 60L761 60L761 30L741 30L741 0L900 0L900 30L900 30L900 60L900 60L900 90L900 90L900 120L900 120L900 150L900 150L900 180L900 180L900 210L900 210L900 240L900 240L900 270L900 270L900 300L900 300L900 330L900 330L900 360L900 360L900 390L900 390L900 420L900 420L900 450L900 450L900 480L900 480L900 510L900 510L900 540L900 540L900 570L900 570L900 600L900 600Z" fill="#709277"></path><path d="M829 600L817 600L817 570L880 570L880 540L881 540L881 510L790 510L790 480L781 480L781 450L886 450L886 420L776 420L776 390L873 390L873 360L832 360L832 330L789 330L789 300L865 300L865 270L812 270L812 240L818 240L818 210L802 210L802 180L805 180L805 150L831 150L831 120L885 120L885 90L857 90L857 60L845 60L845 30L864 30L864 0L900 0L900 30L900 30L900 60L900 60L900 90L900 90L900 120L900 120L900 150L900 150L900 180L900 180L900 210L900 210L900 240L900 240L900 270L900 270L900 300L900 300L900 330L900 330L900 360L900 360L900 390L900 390L900 420L900 420L900 450L900 450L900 480L900 480L900 510L900 510L900 540L900 540L900 570L900 570L900 600L900 600Z" fill="#63856a"></path></svg>