<svg id="visual" viewBox="0 0 900 600" width="900" height="600" xmlns="http://www.w3.org/2000/svg" xmlns:xlink="http://www.w3.org/1999/xlink" version="1.1"><rect x="0" y="0" width="900" height="600" fill="#293855"></rect><path d="M683 600L535 600L535 570L347 570L347 540L625 540L625 510L447 510L447 480L619 480L619 450L314 450L314 420L346 420L346 390L323 390L323 360L599 360L599 330L692 330L692 300L584 300L584 270L562 270L562 240L318 240L318 210L315 210L315 180L621 180L621 150L532 150L532 120L328 120L328 90L549 90L549 60L508 60L508 30L400 30L400 0L900 0L900 30L900 30L900 60L900 60L900 90L900 90L900 120L900 120L900 150L900 150L900 180L900 180L900 210L900 210L900 240L900 240L900 270L900 270L900 300L900 300L900 330L900 330L900 360L900 360L900 390L900 390L900 420L900 420L900 450L900 450L900 480L900 480L900 510L900 510L900 540L900 540L900 570L900 570L900 600L900 600Z" fill="#c2e7c9"></path><path d="M478 600L695 600L695 570L489 570L489 540L709 540L709 510L622 510L622 480L395 480L395 450L543 450L543 420L726 420L726 390L609 390L609 360L657 360L657 330L465 330L465 300L413 300L413 270L589 270L589 240L472 240L472 210L411 210L411 180L658 180L658 150L580 150L580 120L615 120L615 90L490 90L490 60L375 60L375 30L423 30L423 0L900 0L900 30L900 30L900 60L900 60L900 90L900 90L900 120L900 120L900 150L900 150L900 180L900 180L900 210L900 210L900 240L900 240L900 270L900 270L900 300L900 300L900 330L900 330L900 360L900 360L900 390L900 390L900 420L900 420L900 450L900 450L900 480L900 480L900 510L900 510L900 540L900 540L900 570L900 570L900 600L900 600Z" fill="#b6dabd"></path><path d="M540 600L732 600L732 570L573 570L573 540L718 540L718 510L521 510L521 480L472 480L472 450L506 450L506 420L716 420L716 390L736 390L736 360L630 360L630 330L558 330L558 300L654 300L654 270L488 270L488 240L496 240L496 210L467 210L467 180L520 180L520 150L570 150L570 120L653 120L653 90L600 90L600 60L543 60L543 30L486 30L486 0L900 0L900 30L900 30L900 60L900 60L900 90L900 90L900 120L900 120L900 150L900 150L900 180L900 180L900 210L900 210L900 240L900 240L900 270L900 270L900 300L900 300L900 330L900 330L900 360L900 360L900 390L900 390L900 420L900 420L900 450L900 450L900 480L900 480L900 510L900 510L900 540L900 540L900 570L900 570L900 600L900 600Z" fill="#a9ceb0"></path><path d="M763 600L495 600L495 570L503 570L503 540L751 540L751 510L718 510L718 480L688 480L688 450L769 450L769 420L511 420L511 390L595 390L595 360L713 360L713 330L494 330L494 300L751 300L751 270L585 270L585 240L623 240L623 210L519 210L519 180L628 180L628 150L711 150L711 120L547 120L547 90L766 90L766 60L575 60L575 30L567 30L567 0L900 0L900 30L900 30L900 60L900 60L900 90L900 90L900 120L900 120L900 150L900 150L900 180L900 180L900 210L900 210L900 240L900 240L900 270L900 270L900 300L900 300L900 330L900 330L900 360L900 360L900 390L900 390L900 420L900 420L900 450L900 450L900 480L900 480L900 510L900 510L900 540L900 540L900 570L900 570L900 600L900 600Z" fill="#9dc1a4"></path><path d="M668 600L651 600L651 570L558 570L558 540L760 540L760 510L721 510L721 480L791 480L791 450L741 450L741 420L788 420L788 390L587 390L587 360L710 360L710 330L691 330L691 300L561 300L561 270L695 270L695 240L645 240L645 210L565 210L565 180L751 180L751 150L776 150L776 120L750 120L750 90L692 90L692 60L707 60L707 30L665 30L665 0L900 0L900 30L900 30L900 60L900 60L900 90L900 90L900 120L900 120L900 150L900 150L900 180L900 180L900 210L900 210L900 240L900 240L900 270L900 270L900 300L900 300L900 330L900 330L900 360L900 360L900 390L900 390L900 420L900 420L900 450L900 450L900 480L900 480L900 510L900 510L900 540L900 540L900 570L900 570L900 600L900 600Z" fill="#91b598"></path><path d="M701 600L745 600L745 570L675 570L675 540L745 540L745 510L688 510L688 480L801 480L801 450L740 450L740 420L650 420L650 390L773 390L773 360L796 360L796 330L618 330L618 300L616 300L616 270L711 270L711 240L775 240L775 210L661 210L661 180L687 180L687 150L618 150L618 120L611 120L611 90L627 90L627 60L791 60L791 30L715 30L715 0L900 0L900 30L900 30L900 60L900 60L900 90L900 90L900 120L900 120L900 150L900 150L900 180L900 180L900 210L900 210L900 240L900 240L900 270L900 270L900 300L900 300L900 330L900 330L900 360L900 360L900 390L900 390L900 420L900 420L900 450L900 450L900 480L900 480L900 510L900 510L900 540L900 540L900 570L900 570L900 600L900 600Z" fill="#85a98c"></path><path d="M746 600L828 600L828 570L762 570L762 540L718 540L718 510L799 510L799 480L693 480L693 450L702 450L702 420L747 420L747 390L707 390L707 360L739 360L739 330L760 330L760 300L819 300L819 270L700 270L700 240L669 240L669 210L690 210L690 180L772 180L772 150L775 150L775 120L769 120L769 90L672 90L672 60L821 60L821 30L773 30L773 0L900 0L900 30L900 30L900 60L900 60L900 90L900 90L900 120L900 120L900 150L900 150L900 180L900 180L900 210L900 210L900 240L900 240L900 270L900 270L900 300L900 300L900 330L900 330L900 360L900 360L900 390L900 390L900 420L900 420L900 450L900 450L900 480L900 480L900 510L900 510L900 540L900 540L900 570L900 570L900 600L900 600Z" fill="#7a9d81"></path><path d="M833 600L844 600L844 570L836 570L836 540L849 540L849 510L734 510L734 480L763 480L763 450L762 450L762 420L817 420L817 390L822 390L822 360L742 360L742 330L738 330L738 300L850 300L850 270L735 270L735 240L795 240L795 210L768 210L768 180L800 180L800 150L839 150L839 120L795 120L795 90L759 90L759 60L772 60L772 30L809 30L809 0L900 0L900 30L900 30L900 60L900 60L900 90L900 90L900 120L900 120L900 150L900 150L900 180L900 180L900 210L900 210L900 240L900 240L900 270L900 270L900 300L900 300L900 330L900 330L900 360L900 360L900 390L900 390L900 420L900 420L900 450L900 450L900 480L900 480L900 510L900 510L900 540L900 540L900 570L900 570L900 600L900 600Z" fill="#6e9175"></path><path d="M809 600L797 600L797 570L852 570L852 540L797 540L797 510L855 510L855 480L842 480L842 450L825 450L825 420L812 420L812 390L869 390L869 360L848 360L848 330L802 330L802 300L825 300L825 270L844 270L844 240L867 240L867 210L851 210L851 180L813 180L813 150L857 150L857 120L870 120L870 90L855 90L855 60L789 60L789 30L853 30L853 0L900 0L900 30L900 30L900 60L900 60L900 90L900 90L900 120L900 120L900 150L900 150L900 180L900 180L900 210L900 210L900 240L900 240L900 270L900 270L900 300L900 300L900 330L900 330L900 360L900 360L900 390L900 390L900 420L900 420L900 450L900 450L900 480L900 480L900 510L900 510L900 540L900 540L900 570L900 570L900 600L900 600Z" fill="#63856a"></path></svg>